<svg xmlns="http://www.w3.org/2000/svg" width="318.9772" height="55.4759" viewBox="0 0 318.9772 55.4759"><defs><style>.a{fill:#fff;}</style></defs><path class="a" d="M93.9938,11.349l6.3281,19.8921h.2427l6.3408-19.8921h6.1367L104.0162,37.53H96.8829L87.8444,11.349Z"/><path class="a" d="M118.8326,15.3632a2.9594,2.9594,0,0,1-2.084-.8057,2.6139,2.6139,0,0,1,0-3.8926,3.081,3.081,0,0,1,4.1617-.0063,2.6266,2.6266,0,0,1,0,3.8926A2.9242,2.9242,0,0,1,118.8326,15.3632ZM116.0841,37.53V17.8944H121.53V37.53Z"/><path class="a" d="M133.1124,37.8505a7.3514,7.3514,0,0,1-4.0464-1.1572,7.8722,7.8722,0,0,1-2.8632-3.4131,13.0387,13.0387,0,0,1-1.0547-5.542,12.852,12.852,0,0,1,1.0864-5.6182,7.8274,7.8274,0,0,1,2.8955-3.3628,7.4043,7.4043,0,0,1,3.97-1.1186,6.1029,6.1029,0,0,1,2.7549.5561,5.4866,5.4866,0,0,1,1.79,1.3809,7.2205,7.2205,0,0,1,1.0419,1.6167h.1661V11.349h5.4336V37.53h-5.37V34.3856h-.23a7.0063,7.0063,0,0,1-1.08,1.6172,5.43,5.43,0,0,1-1.8028,1.3233A6.2459,6.2459,0,0,1,133.1124,37.8505Zm1.7256-4.334a3.4817,3.4817,0,0,0,2.231-.7227,4.5514,4.5514,0,0,0,1.4062-2.0253,8.6467,8.6467,0,0,0,.4922-3.0567,8.633,8.633,0,0,0-.4858-3.042,4.3672,4.3672,0,0,0-1.4063-1.9941,3.5771,3.5771,0,0,0-2.2373-.7031,3.5349,3.5349,0,0,0-2.2627.7285,4.4516,4.4516,0,0,0-1.3935,2.02,8.6665,8.6665,0,0,0-.4727,2.99,8.7785,8.7785,0,0,0,.479,3.0234,4.55,4.55,0,0,0,1.3936,2.0459A3.4846,3.4846,0,0,0,134.838,33.5165Z"/><path class="a" d="M157.6954,37.914a10.4134,10.4134,0,0,1-5.2094-1.2334,8.3454,8.3454,0,0,1-3.356-3.503,11.5371,11.5371,0,0,1-1.1758-5.3759,11.4818,11.4818,0,0,1,1.1758-5.3184,8.6824,8.6824,0,0,1,3.3179-3.5664,9.6276,9.6276,0,0,1,5.03-1.2783,10.39,10.39,0,0,1,3.6246.62,8.1786,8.1786,0,0,1,2.94,1.86,8.4886,8.4886,0,0,1,1.9624,3.1128,12.4413,12.4413,0,0,1,.7031,4.3789v1.4961h-16.58v-3.375h11.4541a4.1715,4.1715,0,0,0-.5113-2.0839,3.72,3.72,0,0,0-1.4126-1.4258,4.115,4.115,0,0,0-2.09-.5176,4.1951,4.1951,0,0,0-2.1924.5684,4.0866,4.0866,0,0,0-1.4892,1.5214,4.3322,4.3322,0,0,0-.55,2.1163v3.208a5.4609,5.4609,0,0,0,.5434,2.52,3.89,3.89,0,0,0,1.54,1.6357,4.6492,4.6492,0,0,0,2.3648.5752,5.1377,5.1377,0,0,0,1.6621-.2558,3.4421,3.4421,0,0,0,1.291-.7666,3.3318,3.3318,0,0,0,.8184-1.253l5.0371.3321a6.86,6.86,0,0,1-1.5664,3.164,7.8577,7.8577,0,0,1-3.0425,2.0977A11.446,11.446,0,0,1,157.6954,37.914Z"/><path class="a" d="M179.1344,37.914a9.9781,9.9781,0,0,1-5.1455-1.2725,8.5965,8.5965,0,0,1-3.3433-3.5527,11.4121,11.4121,0,0,1-1.1758-5.3,11.4643,11.4643,0,0,1,1.1758-5.3243,8.598,8.598,0,0,1,3.3433-3.5542,11.0441,11.0441,0,0,1,10.291,0,8.6046,8.6046,0,0,1,3.3437,3.5542,11.4755,11.4755,0,0,1,1.1758,5.3243,11.4233,11.4233,0,0,1-1.1758,5.3,8.6032,8.6032,0,0,1-3.3437,3.5527A9.9781,9.9781,0,0,1,179.1344,37.914Zm.0254-4.2188a3.3644,3.3644,0,0,0,2.2632-.7734,4.75,4.75,0,0,0,1.374-2.1162,9.2726,9.2726,0,0,0,.4668-3.0547,9.2826,9.2826,0,0,0-.4668-3.0557,4.8042,4.8042,0,0,0-1.374-2.1221,3.3536,3.3536,0,0,0-2.2632-.7793,3.444,3.444,0,0,0-2.2945.7793,4.7238,4.7238,0,0,0-1.3935,2.1221,9.2826,9.2826,0,0,0-.4668,3.0557,9.2726,9.2726,0,0,0,.4668,3.0547,4.672,4.672,0,0,0,1.3935,2.1162A3.4553,3.4553,0,0,0,179.16,33.6952Z"/><path class="a" d="M192.4547,11.349h6.8272l7.21,17.5913h.3067l7.21-17.5913h6.8272V37.53h-5.3692V20.49h-.2178l-6.7753,16.9136H204.817l-6.7754-16.9775h-.2178V37.53h-5.3691Z"/><path class="a" d="M230.8834,37.9013a8.1089,8.1089,0,0,1-3.35-.6582,5.3042,5.3042,0,0,1-2.32-1.9561,5.7961,5.7961,0,0,1-.85-3.2412,5.7271,5.7271,0,0,1,.6006-2.7481,4.8636,4.8636,0,0,1,1.6367-1.79,7.929,7.929,0,0,1,2.3584-1.0225,17.7208,17.7208,0,0,1,2.78-.4863q1.7137-.1786,2.7617-.3379a3.8571,3.8571,0,0,0,1.5215-.48,1.0654,1.0654,0,0,0,.4726-.9454v-.0761a2.3641,2.3641,0,0,0-.7607-1.88,3.1739,3.1739,0,0,0-2.1543-.665,3.835,3.835,0,0,0-2.3389.6464,3.022,3.022,0,0,0-1.15,1.6172l-5.0371-.41a6.8752,6.8752,0,0,1,1.5088-3.1,7.308,7.308,0,0,1,2.9082-2.02,11.1327,11.1327,0,0,1,4.1357-.7094,12.62,12.62,0,0,1,3.1377.3838,8.263,8.263,0,0,1,2.6719,1.1884,5.8184,5.8184,0,0,1,1.8477,2.0655,6.2589,6.2589,0,0,1,.6777,3.01V37.53h-5.165V34.8075h-.1534a5.472,5.472,0,0,1-1.2656,1.6172,5.7154,5.7154,0,0,1-1.9043,1.0869A7.7666,7.7666,0,0,1,230.8834,37.9013Zm1.56-3.7578a4.5176,4.5176,0,0,0,2.1221-.4805,3.7115,3.7115,0,0,0,1.4453-1.2969,3.3688,3.3688,0,0,0,.5234-1.8535v-2.084a2.7679,2.7679,0,0,1-.6963.3008q-.4409.1334-.9912.2422t-1.0986.1914q-.5508.0849-.9971.1474a6.7467,6.7467,0,0,0-1.6748.4473,2.6914,2.6914,0,0,0-1.1123.8252,2.0471,2.0471,0,0,0-.3965,1.2842,1.9558,1.9558,0,0,0,.8115,1.6943A3.4585,3.4585,0,0,0,232.443,34.1435Z"/><path class="a" d="M251.62,26.1786V37.53h-5.4462V17.8944h5.19v3.4639h.2305a5.51,5.51,0,0,1,2.1865-2.7163,6.6459,6.6459,0,0,1,3.72-1.0034,6.9031,6.9031,0,0,1,3.5664.895,6.09,6.09,0,0,1,2.3652,2.55,8.5938,8.5938,0,0,1,.8438,3.9443V37.53H258.83V25.9989a3.9658,3.9658,0,0,0-.92-2.8183A3.3137,3.3137,0,0,0,255.34,22.164a3.8723,3.8723,0,0,0-1.9375.4736,3.2548,3.2548,0,0,0-1.3037,1.374A4.767,4.767,0,0,0,251.62,26.1786Z"/><path class="a" d="M277.43,37.914a9.9832,9.9832,0,0,1-5.1465-1.2725,8.5985,8.5985,0,0,1-3.3428-3.5527,11.4133,11.4133,0,0,1-1.1757-5.3,11.4655,11.4655,0,0,1,1.1757-5.3243,8.6,8.6,0,0,1,3.3428-3.5542,11.0461,11.0461,0,0,1,10.292,0,8.6,8.6,0,0,1,3.3428,3.5542,11.4643,11.4643,0,0,1,1.1758,5.3243,11.4121,11.4121,0,0,1-1.1758,5.3,8.5985,8.5985,0,0,1-3.3428,3.5527A9.982,9.982,0,0,1,277.43,37.914Zm.0254-4.2188a3.363,3.363,0,0,0,2.2627-.7734,4.758,4.758,0,0,0,1.374-2.1162,9.26,9.26,0,0,0,.4668-3.0547,9.27,9.27,0,0,0-.4668-3.0557,4.8119,4.8119,0,0,0-1.374-2.1221,3.3523,3.3523,0,0,0-2.2627-.7793,3.4449,3.4449,0,0,0-2.2949.7793,4.72,4.72,0,0,0-1.3936,2.1221,9.27,9.27,0,0,0-.4668,3.0557,9.26,9.26,0,0,0,.4668,3.0547,4.6681,4.6681,0,0,0,1.3936,2.1162A3.4562,3.4562,0,0,0,277.4557,33.6952Z"/><path class="a" d="M296.0944,11.349V37.53h-5.4463V11.349Z"/><path class="a" d="M309.3131,37.914a9.9832,9.9832,0,0,1-5.1465-1.2725,8.5985,8.5985,0,0,1-3.3428-3.5527,11.4133,11.4133,0,0,1-1.1757-5.3,11.4655,11.4655,0,0,1,1.1757-5.3243,8.6,8.6,0,0,1,3.3428-3.5542,11.0461,11.0461,0,0,1,10.292,0,8.6,8.6,0,0,1,3.3428,3.5542,11.4643,11.4643,0,0,1,1.1758,5.3243,11.4121,11.4121,0,0,1-1.1758,5.3,8.5985,8.5985,0,0,1-3.3428,3.5527A9.9817,9.9817,0,0,1,309.3131,37.914Zm.0254-4.2188a3.363,3.363,0,0,0,2.2627-.7734,4.758,4.758,0,0,0,1.374-2.1162,9.26,9.26,0,0,0,.4668-3.0547,9.27,9.27,0,0,0-.4668-3.0557,4.8119,4.8119,0,0,0-1.374-2.1221,3.3523,3.3523,0,0,0-2.2627-.7793,3.4449,3.4449,0,0,0-2.2949.7793,4.72,4.72,0,0,0-1.3936,2.1221,9.27,9.27,0,0,0-.4668,3.0557,9.26,9.26,0,0,0,.4668,3.0547,4.6681,4.6681,0,0,0,1.3936,2.1162A3.4562,3.4562,0,0,0,309.3385,33.6952Z"/><path class="a" d="M27.738,0A27.738,27.738,0,1,0,55.4759,27.738,27.7366,27.7366,0,0,0,27.738,0ZM41.0107,29.9649,24.4652,41.3473a2.703,2.703,0,0,1-4.2365-2.2266V16.3556a2.703,2.703,0,0,1,4.2365-2.2268L41.0107,25.511a2.7033,2.7033,0,0,1,0,4.4539Z"/></svg>